<?xml version="1.0" encoding="UTF-8" standalone="no"?>
<!DOCTYPE svg PUBLIC "-//W3C//DTD SVG 20010904//EN"
              "http://www.w3.org/TR/2001/REC-SVG-20010904/DTD/svg10.dtd">

<svg xmlns="http://www.w3.org/2000/svg"
     width="132.275mm" height="132.275mm"
     viewBox="0 0 500 500">
  <path id="path"
        fill="black" stroke="none" stroke-width="1"
        d="M 236.00,0.21
           C 236.00,0.21 257.00,0.21 257.00,0.21
             266.53,0.05 276.55,1.55 286.00,2.87
             390.62,17.44 476.58,98.73 495.42,203.00
             495.42,203.00 499.09,233.00 499.09,233.00
             499.09,233.00 500.00,243.00 500.00,243.00
             500.32,270.45 497.15,297.70 488.98,324.00
             465.70,398.88 409.67,457.94 336.00,484.95
             303.45,496.88 273.41,500.40 239.00,500.00
             239.00,500.00 229.00,499.09 229.00,499.09
             208.03,497.56 189.92,493.65 170.00,487.00
             142.93,477.97 117.50,464.12 95.00,446.58
             2.08,374.15 -25.70,245.28 25.26,140.00
             55.37,77.78 110.48,32.07 176.00,11.19
             191.92,6.12 208.44,3.27 225.00,1.28
             225.00,1.28 236.00,0.21 236.00,0.21 Z
           M 294.00,83.00
           C 294.02,80.37 295.22,72.33 294.00,70.74
             292.71,69.07 288.98,68.86 287.00,68.58
             281.51,67.81 267.99,69.00 263.00,71.40
             250.86,77.23 241.19,93.78 240.00,107.00
             240.00,107.00 269.00,108.00 269.00,108.00
             268.33,105.44 266.98,102.05 266.87,99.58
             266.45,90.66 273.98,81.09 283.00,80.25
             286.58,79.92 290.35,82.14 294.00,83.00 Z
           M 314.00,156.00
           C 318.74,156.73 323.52,158.34 328.00,160.06
             332.24,161.69 334.42,163.01 338.00,165.82
             351.85,176.68 352.00,185.76 352.00,202.00
             352.00,202.00 352.00,221.00 352.00,221.00
             352.00,221.00 348.41,250.00 348.41,250.00
             345.57,266.92 342.04,283.91 335.94,300.00
             335.94,300.00 314.74,344.00 314.74,344.00
             314.74,344.00 296.47,376.90 296.47,376.90
             292.75,381.26 289.08,381.50 286.51,384.39
             283.99,387.21 283.61,391.66 285.85,394.77
             292.72,404.29 304.87,391.55 309.10,386.00
             309.10,386.00 326.06,361.00 326.06,361.00
             336.69,343.89 340.04,339.51 347.32,320.00
             357.44,292.86 364.28,265.88 367.17,237.00
             367.17,237.00 369.00,217.00 369.00,217.00
             369.00,217.00 369.00,194.00 369.00,194.00
             368.99,189.76 368.28,179.76 366.86,176.00
             365.35,172.04 361.95,168.24 359.25,165.00
             352.05,156.39 342.52,147.75 332.00,143.45
             332.00,143.45 305.04,136.49 305.04,136.49
             299.66,133.99 297.75,125.16 289.00,120.08
             280.23,114.99 255.63,114.98 245.00,115.00
             239.67,115.01 230.81,115.88 226.00,118.07
             217.87,121.78 208.48,133.32 206.00,142.00
             202.24,139.90 199.28,137.70 195.00,136.68
             177.69,132.56 158.55,142.69 147.09,155.00
             142.36,160.08 129.05,174.57 135.51,181.64
             138.82,185.17 144.22,184.92 147.67,181.64
             151.60,178.04 159.41,161.71 171.00,155.41
             174.18,153.69 176.54,153.37 180.00,152.87
             190.64,151.34 200.05,153.97 202.61,166.00
             203.71,171.17 201.70,175.09 201.17,180.00
             201.17,180.00 200.00,208.00 200.00,208.00
             200.00,208.00 199.00,223.00 199.00,223.00
             199.00,223.00 199.00,299.00 199.00,299.00
             199.00,299.00 201.00,324.00 201.00,324.00
             201.00,324.00 203.00,364.00 203.00,364.00
             203.11,372.84 207.36,393.68 220.00,390.68
             222.20,390.16 223.89,388.95 224.98,386.94
             228.29,380.82 222.72,377.54 220.89,372.91
             219.78,370.11 220.09,366.95 219.96,364.00
             219.96,364.00 219.00,353.00 219.00,353.00
             219.00,353.00 219.00,328.00 219.00,328.00
             219.00,328.00 218.04,316.00 218.04,316.00
             218.04,316.00 218.04,304.00 218.04,304.00
             218.04,304.00 216.00,277.00 216.00,277.00
             216.00,277.00 215.00,259.00 215.00,259.00
             215.00,259.00 215.00,234.00 215.00,234.00
             215.00,234.00 216.63,218.00 216.63,218.00
             216.63,218.00 216.04,208.00 216.04,208.00
             216.04,208.00 217.96,192.00 217.96,192.00
             217.96,192.00 217.96,173.00 217.96,173.00
             218.05,162.17 219.87,148.32 227.32,140.09
             237.90,128.41 251.86,129.36 266.00,130.95
             273.67,131.81 281.28,133.13 286.79,139.09
             291.98,144.72 293.00,153.67 294.00,161.00
             296.30,177.76 295.97,177.43 296.00,194.00
             296.00,194.00 296.99,211.00 296.99,211.00
             296.99,211.00 296.04,220.00 296.04,220.00
             296.04,220.00 296.04,232.00 296.04,232.00
             296.04,232.00 295.09,242.00 295.09,242.00
             292.43,279.97 283.84,317.21 274.37,354.00
             272.41,361.61 269.03,374.68 262.91,379.69
             258.63,383.18 255.66,380.97 252.31,384.31
             249.61,387.02 249.46,391.75 251.74,394.77
             256.40,400.95 266.86,396.84 271.99,393.45
             277.61,389.74 282.88,382.59 284.48,376.00
             284.48,376.00 286.44,366.00 286.44,366.00
             286.44,366.00 291.76,350.00 291.76,350.00
             291.76,350.00 294.89,333.00 294.89,333.00
             294.89,333.00 301.58,309.00 301.58,309.00
             301.58,309.00 309.43,261.00 309.43,261.00
             309.43,261.00 315.00,216.00 315.00,216.00
             315.00,216.00 315.00,175.00 315.00,175.00
             315.00,175.00 314.00,156.00 314.00,156.00 Z
           M 79.00,153.00
           C 79.00,153.00 57.00,143.00 57.00,143.00
             57.00,143.00 53.00,151.00 53.00,151.00
             58.86,153.52 65.60,155.35 69.00,161.00
             62.23,161.93 58.39,157.74 51.00,156.00
             51.00,156.00 48.00,164.00 48.00,164.00
             51.17,165.11 56.28,167.01 58.92,168.96
             59.95,169.72 62.35,171.71 61.09,173.18
             60.14,174.32 58.08,173.54 56.99,173.18
             56.99,173.18 45.00,168.00 45.00,168.00
             45.00,168.00 42.00,176.00 42.00,176.00
             47.75,178.71 60.03,186.39 65.57,180.69
             68.36,177.81 67.27,175.02 69.49,171.42
             72.62,166.37 74.24,166.64 73.00,160.00
             77.10,158.56 77.33,156.80 79.00,153.00 Z
           M 63.00,190.00
           C 63.00,190.00 40.00,183.00 40.00,183.00
             40.00,183.00 37.00,191.00 37.00,191.00
             37.00,191.00 61.00,198.00 61.00,198.00
             61.00,198.00 63.00,190.00 63.00,190.00 Z
           M 71.00,192.00
           C 71.00,192.00 65.00,191.00 65.00,191.00
             63.07,197.02 62.10,199.14 69.00,201.00
             69.00,201.00 71.00,192.00 71.00,192.00 Z
           M 59.00,202.00
           C 59.00,202.00 37.02,204.40 37.02,204.40
             31.93,203.46 31.83,197.60 28.34,198.74
             24.28,200.01 26.47,207.49 28.34,209.61
             31.37,212.80 50.48,222.68 55.00,224.00
             56.30,216.23 55.34,216.61 46.00,211.00
             55.23,211.00 58.48,212.40 59.00,202.00 Z
           M 44.90,239.00
           C 44.90,239.00 44.90,235.00 44.90,235.00
             45.00,233.45 45.06,230.43 44.90,229.02
             44.12,226.83 43.08,225.45 40.94,224.60
             32.01,221.06 23.10,236.05 35.00,237.00
             36.81,230.64 39.54,233.24 40.00,239.00
             40.00,239.00 29.00,238.00 29.00,238.00
             29.00,238.00 29.00,245.99 29.00,245.99
             33.53,246.60 46.00,248.22 49.79,245.99
             54.43,243.22 57.34,230.69 48.00,226.00
             48.00,226.00 48.00,239.00 48.00,239.00
             48.00,239.00 44.90,239.00 44.90,239.00 Z
           M 62.00,252.00
           C 62.00,252.00 28.00,254.00 28.00,254.00
             28.00,254.00 29.00,262.00 29.00,262.00
             29.00,262.00 54.00,261.00 54.00,261.00
             54.00,261.00 61.01,259.26 61.01,259.26
             61.01,259.26 62.00,252.00 62.00,252.00 Z
           M 35.00,263.00
           C 28.36,263.56 27.38,267.94 31.43,272.89
             34.31,276.42 37.67,277.12 42.00,276.96
             45.82,276.82 49.02,275.92 51.57,272.87
             56.03,267.52 53.85,262.57 47.00,262.00
             46.60,269.72 37.46,270.78 35.00,263.00 Z
           M 64.00,279.00
           C 64.00,279.00 57.00,280.00 57.00,280.00
             57.00,280.00 59.00,288.00 59.00,288.00
             59.00,288.00 65.00,287.00 65.00,287.00
             65.00,287.00 64.00,279.00 64.00,279.00 Z
           M 54.98,280.00
           C 54.98,280.00 31.00,284.00 31.00,284.00
             31.00,284.00 32.00,292.00 32.00,292.00
             32.00,292.00 49.00,289.58 49.00,289.58
             49.00,289.58 54.98,287.41 54.98,287.41
             54.98,287.41 54.98,280.00 54.98,280.00 Z
           M 57.00,292.00
           C 57.00,292.00 51.00,293.00 51.00,293.00
             51.00,293.00 51.00,297.00 51.00,297.00
             47.33,297.31 39.11,298.49 36.75,301.43
             34.95,303.66 34.99,310.24 38.26,311.26
             40.67,312.01 42.34,309.12 44.26,307.83
             47.01,305.98 50.78,305.45 54.00,305.00
             54.00,305.00 54.00,309.00 54.00,309.00
             54.00,309.00 65.00,302.00 65.00,302.00
             65.00,302.00 63.00,293.00 63.00,293.00
             63.00,293.00 57.00,295.00 57.00,295.00
             57.00,295.00 57.00,292.00 57.00,292.00 Z
           M 68.00,311.00
           C 68.00,311.00 55.00,311.00 55.00,311.00
             55.00,311.00 56.00,315.00 56.00,315.00
             52.27,315.58 43.17,317.45 41.61,321.22
             40.47,323.98 42.12,328.30 43.00,331.00
             43.00,331.00 50.30,325.98 50.30,325.98
             50.30,325.98 59.00,322.00 59.00,322.00
             59.00,322.00 60.00,326.00 60.00,326.00
             60.00,326.00 66.00,324.00 66.00,324.00
             66.00,324.00 65.00,320.00 65.00,320.00
             65.00,320.00 70.00,319.00 70.00,319.00
             70.00,319.00 68.00,311.00 68.00,311.00 Z
           M 76.00,324.00
           C 76.00,324.00 70.00,326.00 70.00,326.00
             70.00,326.00 73.00,334.00 73.00,334.00
             73.00,334.00 79.00,332.00 79.00,332.00
             79.00,332.00 76.00,324.00 76.00,324.00 Z
           M 68.00,327.00
           C 68.00,327.00 46.00,337.00 46.00,337.00
             46.00,337.00 48.00,344.00 48.00,344.00
             48.00,344.00 71.00,335.00 71.00,335.00
             71.00,335.00 68.00,327.00 68.00,327.00 Z
           M 84.00,361.00
           C 82.48,357.15 80.27,351.32 75.98,349.98
             71.00,348.43 63.35,353.32 64.84,358.96
             64.84,358.96 68.92,366.08 68.92,366.08
             69.72,367.85 69.94,369.10 71.43,370.57
             76.97,376.04 86.59,370.75 89.55,364.99
             92.72,358.80 90.10,350.96 85.67,346.10
             83.54,343.76 81.12,342.11 78.00,341.39
             75.04,340.71 70.86,340.94 68.00,341.97
             50.18,348.40 54.22,372.21 71.00,374.00
             68.13,366.67 61.50,362.84 62.75,357.00
             63.77,352.27 70.21,347.30 75.00,347.44
             81.65,347.63 85.50,355.06 84.00,361.00 Z
           M 70.00,360.00
           C 71.42,355.56 72.48,355.07 77.00,356.00
             74.91,359.71 74.14,359.66 70.00,360.00 Z
           M 75.00,367.00
           C 77.26,363.64 80.22,363.02 84.00,362.00
             80.82,365.59 79.67,366.11 75.00,367.00 Z
           M 100.00,369.00
           C 94.62,372.41 87.75,378.43 83.04,382.85
             80.97,384.79 78.42,386.89 78.50,390.01
             78.59,393.35 81.87,396.65 83.95,399.00
             88.30,403.92 91.21,409.67 97.00,403.00
             97.00,403.00 86.00,391.00 86.00,391.00
             87.97,389.72 90.54,387.54 93.00,387.90
             98.99,388.79 103.90,400.78 109.00,391.00
             109.00,391.00 97.00,383.00 97.00,383.00
             97.00,383.00 104.00,376.00 104.00,376.00
             104.00,376.00 100.00,369.00 100.00,369.00 Z
           M 111.30,384.66
           C 107.07,388.15 110.92,391.46 113.70,390.34
             116.12,389.38 117.14,384.18 111.30,384.66 Z
           M 112.00,386.00
           C 112.00,386.00 114.00,387.00 114.00,387.00
             114.00,387.00 114.00,388.00 114.00,388.00
             114.00,388.00 112.00,389.00 112.00,389.00
             112.00,389.00 111.00,387.00 111.00,387.00
             111.00,387.00 112.00,386.00 112.00,386.00 Z
           M 113.00,400.00
           C 111.52,401.31 109.65,402.47 110.34,404.85
             110.85,406.61 113.62,408.66 115.00,409.80
             118.05,412.32 129.87,422.78 132.94,423.10
             135.29,423.35 136.55,421.48 135.26,419.15
             134.32,417.48 130.61,414.69 129.00,413.40
             129.00,413.40 123.00,408.60 123.00,408.60
             123.00,408.60 113.00,400.00 113.00,400.00 Z
           M 173.00,429.00
           C 173.00,429.00 146.00,415.00 146.00,415.00
             146.00,415.00 144.00,421.00 144.00,421.00
             144.00,421.00 163.00,432.00 163.00,432.00
             163.00,432.00 153.00,435.00 153.00,435.00
             152.53,429.08 150.54,428.88 145.00,428.00
             145.00,428.00 148.00,450.00 148.00,450.00
             148.00,450.00 155.00,451.00 155.00,451.00
             155.00,448.65 154.71,444.37 156.02,442.43
             157.56,440.15 161.52,439.55 164.00,438.53
             169.33,436.33 171.35,434.48 173.00,429.00 Z
           M 184.00,432.00
           C 184.00,432.00 178.00,434.00 178.00,434.00
             178.00,434.00 183.00,447.00 183.00,447.00
             192.10,443.30 187.46,438.55 184.00,432.00 Z
           M 204.00,446.00
           C 192.98,442.01 195.28,449.95 184.00,453.21
             178.91,454.68 175.00,453.26 172.70,454.99
             170.91,456.34 170.49,458.97 170.00,461.00
             185.21,461.00 195.91,461.70 204.00,446.00 Z" />
</svg>
